<?xml version="1.0" encoding="utf-8"?>
<!-- Generator: Adobe Illustrator 27.0.0, SVG Export Plug-In . SVG Version: 6.00 Build 0)  -->
<svg version="1.1" id="Layer_1" xmlns="http://www.w3.org/2000/svg" xmlns:xlink="http://www.w3.org/1999/xlink" x="0px" y="0px"
	 viewBox="0 0 50.01 49.14" style="enable-background:new 0 0 50.01 49.14;" xml:space="preserve">
<style type="text/css">
	.st0{fill:#FFFFFF;}
</style>
<g>
	<g id="Layer_2_00000098222577444197724950000008862585742053664441_">
		<g id="Layer_1-2_00000116221972723296960520000005549447222492632211_">
			<g id="icon_mt5_fbs_00000013171117797056528870000017052717585536385712_">
				<path class="st0" d="M25.42,26.39c0.49,0,0.97,0.08,1.43,0.24c0.43,0.15,0.82,0.39,1.16,0.69c0.33,0.33,0.6,0.72,0.77,1.15
					c0.17,0.49,0.25,1.01,0.23,1.53c0.01,0.59-0.09,1.18-0.3,1.74c-0.19,0.5-0.49,0.95-0.89,1.31c-0.42,0.38-0.92,0.66-1.46,0.83
					c-0.65,0.2-1.32,0.29-2,0.28c-0.3,0.01-0.59,0.01-0.89,0c-0.29-0.02-0.57-0.06-0.85-0.12c-0.26-0.05-0.52-0.11-0.77-0.2
					c-0.23-0.07-0.45-0.17-0.66-0.28v-2.19c0.22,0.12,0.44,0.22,0.67,0.31c0.25,0.1,0.52,0.18,0.78,0.24
					c0.27,0.07,0.54,0.13,0.81,0.17c0.26,0.04,0.52,0.06,0.78,0.06c0.59,0.04,1.18-0.12,1.67-0.46c0.41-0.36,0.63-0.89,0.58-1.44
					c0.03-0.51-0.17-1.01-0.56-1.35c-0.51-0.35-1.12-0.51-1.74-0.46h-0.45l-0.48,0.07l-0.44,0.08l-0.37,0.1l-1-0.54l0.45-6.1h6.32
					v2.14h-4.1l-0.2,2.35l0.61-0.11C24.82,26.39,25.12,26.38,25.42,26.39z"/>
				<path class="st0" d="M8.33,27.55c1.02-0.38,2.07-0.66,3.14-0.84c0.11-0.95,0.32-1.89,0.62-2.8
					C10.72,24.56,8.27,26.66,8.33,27.55z"/>
				<path class="st0" d="M33.01,42.51c-0.74-0.61-1.42-1.28-2.05-2c-0.78,0.38-1.59,0.68-2.42,0.91
					C30.01,42.17,32.41,42.93,33.01,42.51z"/>
				<path class="st0" d="M33.66,14c-0.18,1.06-0.46,2.1-0.84,3.11c0.77,0.53,1.47,1.14,2.11,1.82C35.01,17.35,34.43,14.36,33.66,14z
					"/>
				<ellipse class="st0" cx="25.04" cy="6.06" rx="4.89" ry="6.06"/>
				<path class="st0" d="M32.82,17.09c0.37-1,0.66-2.04,0.84-3.09c0.77,0.38,1.35,3.37,1.27,4.93c2.22,2.36,3.53,5.43,3.69,8.67
					c1.6-2.45,6.29-19.4-7.86-23.6c0.76,8.32-4.91,9.26-5.57,9.28s-6.81-0.77-6-9.13C9.89,6.18,9.11,14.74,9.38,17.88
					c2.02-1.15,4.27-1.83,6.58-2c0.15-0.69,0.47-1.34,0.93-1.88c0,0.74,0.05,1.16,0.06,1.77c0.45-0.06,1.65-0.18,3.21-0.24
					c4.22-1.61,8.96-1.01,12.66,1.58L32.82,17.09z"/>
				
					<ellipse transform="matrix(0.5002 -0.8659 0.8659 0.5002 -11.6754 57.7891)" class="st0" cx="44.22" cy="39.01" rx="4.89" ry="6.06"/>
				<path class="st0" d="M37.86,35.5c0.34-0.6,4.07-5.51,10.89-0.6c2.94-9.08-4.08-14-6.94-15.37c0.01,2.33-0.51,4.62-1.52,6.72
					c0.52,0.48,0.91,1.08,1.15,1.75l-1.57-0.83c-0.17,0.41-0.64,1.46-1.34,2.8c-0.58,4.55-3.4,8.5-7.52,10.52
					c0.63,0.72,1.31,1.39,2.05,2c-0.64,0.42-3-0.34-4.47-1.11c-3.15,0.85-6.5,0.54-9.45-0.86C21.52,44,33.01,54.55,43.11,45
					C35.52,41.47,37.54,36.08,37.86,35.5z"/>
				<path class="st0" d="M11.01,35.94c-1.36-2.34-4.8-2.87-7.7-1.2S-0.8,39.67,0.56,42s4.8,2.88,7.69,1.2S12.39,38.28,11.01,35.94z"
					/>
				<path class="st0" d="M11.38,28.25c0-0.52,0-1,0.09-1.54c-1.07,0.18-2.12,0.46-3.14,0.84c-0.06-0.89,2.39-3,3.76-3.64
					c0.75-2.22,2.05-4.21,3.79-5.77c0.6-0.63,1.27-1.19,2-1.67C16.01,16-2.43,20.19,1.19,35C8,30.17,11.66,34.6,12,35.17
					s2.76,6.31-4.89,9.83c6.39,7,14.19,3.41,16.78,1.6c-2.02-1.15-3.75-2.75-5.07-4.67c-0.67,0.2-1.39,0.24-2.08,0.13l1.5-1
					c-0.22-0.29-0.72-1-1.33-1.91C13.44,36.6,11.39,32.55,11.38,28.25z"/>
			</g>
		</g>
	</g>
	<path class="st0" d="M37.34,28.11c0,6.76-5.48,12.24-12.24,12.24s-12.24-5.48-12.24-12.24s5.48-12.24,12.24-12.24
		S37.34,21.35,37.34,28.11z M25.1,18.67c-5.21,0-9.44,4.23-9.44,9.44s4.23,9.44,9.44,9.44s9.44-4.23,9.44-9.44
		S30.31,18.67,25.1,18.67z"/>
</g>
</svg>
