<svg width="24" height="24" viewBox="0 0 24 24" fill="none" xmlns="http://www.w3.org/2000/svg">
<rect width="24" height="24" rx="4" fill="#F64439"/>
<rect x="6" y="12" width="12" height="7" rx="0.5" stroke="white" stroke-width="2"/>
<rect width="16" height="4" rx="0.5" transform="matrix(1 0 0 -1 4 12)" stroke="white" stroke-width="2"/>
<path d="M14.6667 8C16 8 17 7.33334 17 6.00001C17 4.66667 16 4 15 4C13 4 12 5.33335 12 7.33334" stroke="white" stroke-width="2"/>
<path d="M9.33333 8C8 8 7 7.33334 7 6.00001C7 4.66667 8 4 9 4C11 4 12 5.33335 12 7.33334" stroke="white" stroke-width="2"/>
<rect x="11" y="9" width="2" height="10" fill="white"/>
</svg>
