<svg width="16" height="16" viewBox="0 0 16 16" fill="none" xmlns="http://www.w3.org/2000/svg">
<circle cx="8" cy="8" r="8" fill="#DBDBDB"/>
<path d="M7.19141 9.558H8.08241L8.19241 8.678C9.41341 8.469 10.4144 7.842 10.4144 6.456V6.434C10.4144 5.059 9.36941 4.201 7.82941 4.201C6.64141 4.201 5.81641 4.696 5.17841 5.422L6.00341 6.302C6.53141 5.741 7.10341 5.433 7.79641 5.433C8.58841 5.433 9.06141 5.862 9.06141 6.478V6.5C9.06141 7.226 8.42341 7.677 7.02641 7.721L6.97141 7.776L7.19141 9.558ZM6.87241 12H8.34641V10.482H6.87241V12Z" fill="white"/>
</svg>
